<svg width="729" height="125" viewBox="0 0 729 125" fill="none" xmlns="http://www.w3.org/2000/svg">
<rect y="25" width="119" height="75" rx="37.5" fill="#0066FF"/>
<circle cx="34" cy="63" r="6" fill="#F5F5F4"/>
<circle cx="84" cy="63" r="6" fill="#F5F5F4"/>
<circle cx="59" cy="63" r="6" fill="#F5F5F4"/>
<path d="M178.7 101C172.967 101 167.633 100.1 162.7 98.3C157.767 96.5 153.467 94 149.8 90.8C146.133 87.6 143.3 83.8 141.3 79.4C139.3 74.9333 138.3 70 138.3 64.6C138.3 59.2667 139.333 54.4 141.4 50C143.467 45.5333 146.3 41.7 149.9 38.5C153.567 35.2333 157.867 32.7 162.8 30.9C167.8 29.1 173.167 28.2 178.9 28.2C182.7 28.2 186.367 28.6667 189.9 29.6C193.433 30.4667 196.733 31.7 199.8 33.3C202.933 34.8333 205.667 36.7 208 38.9L196.4 53.4C195.067 52.0667 193.533 50.8667 191.8 49.8C190.133 48.7333 188.167 47.8667 185.9 47.2C183.7 46.5333 181.2 46.2 178.4 46.2C175.867 46.2 173.4 46.6 171 47.4C168.6 48.2 166.467 49.4 164.6 51C162.8 52.6 161.367 54.5667 160.3 56.9C159.233 59.1667 158.7 61.8 158.7 64.8C158.7 67.7333 159.233 70.3333 160.3 72.6C161.433 74.8667 163 76.7667 165 78.3C167 79.8333 169.3 81.0333 171.9 81.9C174.5 82.7667 177.333 83.2 180.4 83.2C183.2 83.2 185.7 82.8 187.9 82C190.167 81.2 192.167 80.2333 193.9 79.1C195.7 77.9667 197.3 76.8 198.7 75.6L208 90.6C206.2 92.3333 203.767 94 200.7 95.6C197.633 97.2 194.2 98.5 190.4 99.5C186.6 100.5 182.7 101 178.7 101ZM225.627 100V26H243.827V59.1L239.327 60.6C239.993 57.8 241.393 55.2667 243.527 53C245.727 50.7333 248.393 48.9333 251.527 47.6C254.66 46.2667 257.993 45.6 261.527 45.6C266.06 45.6 269.893 46.5333 273.027 48.4C276.227 50.2 278.593 52.7667 280.127 56.1C281.727 59.3667 282.527 63.2 282.527 67.6V100H263.927V70.7C263.927 68.5 263.56 66.7 262.827 65.3C262.093 63.8333 260.993 62.7333 259.527 62C258.127 61.2 256.46 60.8333 254.527 60.9C253.06 60.9 251.693 61.1333 250.427 61.6C249.16 62.0667 248.06 62.7333 247.127 63.6C246.193 64.4667 245.46 65.5 244.927 66.7C244.46 67.9 244.227 69.2 244.227 70.6V100H234.927C232.327 100 230.26 100 228.727 100C227.193 100 226.16 100 225.627 100ZM326.588 100.9C321.388 100.9 316.822 99.7333 312.888 97.4C308.955 95.0667 305.888 91.8333 303.688 87.7C301.488 83.5 300.388 78.7 300.388 73.3C300.388 67.8333 301.488 63.0333 303.688 58.9C305.888 54.7667 308.955 51.5333 312.888 49.2C316.888 46.8 321.522 45.6 326.788 45.6C329.722 45.6 332.422 45.9667 334.888 46.7C337.422 47.3667 339.588 48.3667 341.388 49.7C343.255 50.9667 344.788 52.3667 345.988 53.9C347.255 55.3667 348.188 56.9333 348.788 58.6L344.788 58.8V46.7H362.988V100H344.388V86.2L348.288 87C347.822 88.8 346.955 90.5333 345.688 92.2C344.488 93.8667 342.922 95.3667 340.988 96.7C339.055 97.9667 336.888 99 334.488 99.8C332.088 100.533 329.455 100.9 326.588 100.9ZM331.788 85.6C334.455 85.6 336.755 85.1333 338.688 84.2C340.688 83.2 342.222 81.7667 343.288 79.9C344.355 78.0333 344.888 75.8333 344.888 73.3C344.888 70.7667 344.355 68.5667 343.288 66.7C342.222 64.8333 340.688 63.4 338.688 62.4C336.755 61.4 334.455 60.9 331.788 60.9C329.055 60.9 326.722 61.4 324.788 62.4C322.855 63.4 321.355 64.8333 320.288 66.7C319.288 68.5667 318.788 70.7667 318.788 73.3C318.788 75.8333 319.288 78.0333 320.288 79.9C321.355 81.7667 322.855 83.2 324.788 84.2C326.722 85.1333 329.055 85.6 331.788 85.6ZM391.843 100V32H410.443V100H391.843ZM380.643 62.5V46.7H422.943V62.5H380.643ZM447.721 100V44.7C447.721 41.1 448.521 37.9 450.121 35.1C451.721 32.2333 453.921 30 456.721 28.4C459.588 26.8 462.888 26 466.621 26C469.488 26 471.988 26.4333 474.121 27.3C476.321 28.1 478.088 29.1 479.421 30.3L475.621 39.9C474.621 39.1667 473.454 38.5333 472.121 38C470.854 37.4 469.588 37.1 468.321 37.1C466.321 37.1 464.688 37.4333 463.421 38.1C462.154 38.7667 461.221 39.7 460.621 40.9C460.021 42.1 459.721 43.4667 459.721 45V100H453.721C452.654 100 451.621 100 450.621 100C449.621 100 448.654 100 447.721 100ZM437.921 59.6V48.8H476.021V59.6H437.921ZM519.1 101C513.167 101 507.9 99.8333 503.3 97.5C498.7 95.1 495.067 91.8333 492.4 87.7C489.8 83.5667 488.5 78.8667 488.5 73.6C488.5 68.3333 489.8 63.6333 492.4 59.5C495.067 55.3667 498.7 52.1333 503.3 49.8C507.9 47.4 513.167 46.2 519.1 46.2C525.033 46.2 530.3 47.4 534.9 49.8C539.5 52.1333 543.1 55.3667 545.7 59.5C548.367 63.6333 549.7 68.3333 549.7 73.6C549.7 78.8667 548.367 83.5667 545.7 87.7C543.1 91.8333 539.5 95.1 534.9 97.5C530.3 99.8333 525.033 101 519.1 101ZM519.1 90.1C522.5 90.1 525.567 89.3667 528.3 87.9C531.1 86.4333 533.267 84.4667 534.8 82C536.4 79.5333 537.2 76.7333 537.2 73.6C537.2 70.4 536.4 67.5667 534.8 65.1C533.267 62.5667 531.1 60.6 528.3 59.2C525.567 57.8 522.5 57.1 519.1 57.1C515.767 57.1 512.7 57.8333 509.9 59.3C507.1 60.7 504.9 62.6333 503.3 65.1C501.7 67.5667 500.933 70.4 501 73.6C500.933 76.7333 501.7 79.5333 503.3 82C504.9 84.4667 507.1 86.4333 509.9 87.9C512.7 89.3667 515.767 90.1 519.1 90.1ZM570.072 100V47.3H582.172L582.472 65.1L579.972 62.7C580.839 59.6333 582.305 56.8667 584.372 54.4C586.505 51.8667 588.939 49.8667 591.672 48.4C594.405 46.9333 597.239 46.2 600.172 46.2C601.839 46.2 603.472 46.3667 605.072 46.7C606.672 47.0333 607.939 47.4667 608.872 48L605.572 61.3C604.505 60.6333 603.205 60.1333 601.672 59.8C600.205 59.4 598.705 59.2 597.172 59.2C595.039 59.2 593.072 59.6 591.272 60.4C589.472 61.1333 587.905 62.1667 586.572 63.5C585.305 64.7667 584.305 66.2333 583.572 67.9C582.839 69.5 582.472 71.2333 582.472 73.1V100H570.072ZM626.501 100V47.3H638.601L638.801 59.5H636.001C636.667 57.9 637.667 56.3333 639.001 54.8C640.401 53.2 642.067 51.8 644.001 50.6C645.934 49.3333 648.067 48.3333 650.401 47.6C652.734 46.8 655.234 46.4 657.901 46.4C661.034 46.4 663.867 46.9 666.401 47.9C668.934 48.8333 671.034 50.3667 672.701 52.5C674.367 54.6333 675.534 57.3333 676.201 60.6L673.501 60L674.301 58.4C675.167 56.9333 676.334 55.5 677.801 54.1C679.267 52.7 680.967 51.4333 682.901 50.3C684.834 49.1 686.934 48.1667 689.201 47.5C691.467 46.7667 693.767 46.4 696.101 46.4C700.834 46.4 704.667 47.3 707.601 49.1C710.601 50.9 712.767 53.4667 714.101 56.8C715.501 60.1333 716.201 64.0667 716.201 68.6V100H703.801V69.8C703.801 67.1333 703.401 64.8667 702.601 63C701.867 61.1333 700.667 59.7333 699.001 58.8C697.401 57.8 695.334 57.3 692.801 57.3C690.667 57.3 688.634 57.6667 686.701 58.4C684.834 59.0667 683.201 60.0333 681.801 61.3C680.401 62.5667 679.301 64.0333 678.501 65.7C677.767 67.3 677.401 69.0333 677.401 70.9V100H665.001V69.7C665.001 67.1 664.567 64.9 663.701 63.1C662.834 61.2333 661.534 59.8 659.801 58.8C658.067 57.8 655.867 57.3 653.201 57.3C651.134 57.3 649.234 57.6667 647.501 58.4C645.767 59.1333 644.234 60.1333 642.901 61.4C641.634 62.6 640.634 63.9333 639.901 65.4C639.234 66.8667 638.901 68.4 638.901 70V100H626.501Z" fill="white"/>
</svg>
