<svg width="721" height="125" viewBox="0 0 721 125" fill="none" xmlns="http://www.w3.org/2000/svg">
<path d="M180.8 101C175.4 101 170.367 100.133 165.7 98.4C161.1 96.6 157.067 94.1 153.6 90.9C150.133 87.7 147.433 83.9 145.5 79.5C143.633 75.0333 142.7 70.1333 142.7 64.8C142.7 59.6 143.667 54.8333 145.6 50.5C147.6 46.1 150.333 42.3 153.8 39.1C157.333 35.9 161.433 33.4 166.1 31.6C170.833 29.8 175.867 28.9 181.2 28.9C185 28.9 188.7 29.4 192.3 30.4C195.9 31.3333 199.2 32.6667 202.2 34.4C205.2 36.0667 207.733 38 209.8 40.2L200.7 51.3C198.9 49.6333 197 48.2 195 47C193 45.7333 190.8 44.7333 188.4 44C186.067 43.2667 183.5 42.9 180.7 42.9C177.767 42.9 174.933 43.4333 172.2 44.5C169.467 45.5 167.033 46.9667 164.9 48.9C162.833 50.7667 161.167 53.0667 159.9 55.8C158.633 58.5333 158 61.5667 158 64.9C158 68.3667 158.633 71.4667 159.9 74.2C161.167 76.9333 162.9 79.2333 165.1 81.1C167.367 82.9667 169.967 84.4333 172.9 85.5C175.833 86.5 179 87 182.4 87C185.267 87 187.9 86.6 190.3 85.8C192.7 85 194.867 84 196.8 82.8C198.733 81.6 200.467 80.3 202 78.9L209.2 90.7C207.467 92.3667 205.133 94 202.2 95.6C199.267 97.2 195.933 98.5 192.2 99.5C188.533 100.5 184.733 101 180.8 101ZM228.757 100V26H242.657V59.5L239.257 60.7C239.924 58.1 241.357 55.7 243.557 53.5C245.757 51.2333 248.424 49.4333 251.557 48.1C254.69 46.7 257.99 46 261.457 46C265.99 46 269.79 46.9 272.857 48.7C275.924 50.5 278.224 53.0667 279.757 56.4C281.357 59.6667 282.157 63.5333 282.157 68V100H267.957V70C267.957 67.4 267.49 65.2333 266.557 63.5C265.624 61.7 264.257 60.3333 262.457 59.4C260.724 58.4667 258.69 58.0667 256.357 58.2C254.424 58.2 252.624 58.5333 250.957 59.2C249.357 59.8 247.924 60.6667 246.657 61.8C245.457 62.9333 244.524 64.2333 243.857 65.7C243.19 67.1 242.857 68.6 242.857 70.2V100H235.857C233.99 100 232.457 100 231.257 100C230.124 100 229.29 100 228.757 100ZM327.575 101C322.375 101 317.775 99.8333 313.775 97.5C309.842 95.1 306.742 91.8333 304.475 87.7C302.275 83.5667 301.175 78.8 301.175 73.4C301.175 68.0667 302.308 63.3667 304.575 59.3C306.908 55.1667 310.075 51.9333 314.075 49.6C318.142 47.2 322.808 46 328.075 46C331.142 46 333.975 46.4 336.575 47.2C339.175 48 341.442 49.1 343.375 50.5C345.308 51.8333 346.875 53.3333 348.075 55C349.342 56.6 350.142 58.3 350.475 60.1L347.275 60V47.1H361.275V100H347.075V86.5L350.075 86.8C349.675 88.5333 348.842 90.2333 347.575 91.9C346.308 93.5667 344.642 95.1 342.575 96.5C340.575 97.8333 338.275 98.9333 335.675 99.8C333.142 100.6 330.442 101 327.575 101ZM331.375 88.7C334.575 88.7 337.375 88.0667 339.775 86.8C342.242 85.5333 344.142 83.7667 345.475 81.5C346.808 79.1667 347.475 76.4667 347.475 73.4C347.475 70.4667 346.808 67.8667 345.475 65.6C344.142 63.3333 342.242 61.5333 339.775 60.2C337.375 58.8667 334.575 58.2 331.375 58.2C328.175 58.2 325.375 58.8667 322.975 60.2C320.575 61.5333 318.675 63.3333 317.275 65.6C315.942 67.8667 315.275 70.4667 315.275 73.4C315.275 76.4667 315.942 79.1667 317.275 81.5C318.675 83.7667 320.575 85.5333 322.975 86.8C325.375 88.0667 328.175 88.7 331.375 88.7ZM391.977 100V32.5H406.177V100H391.977ZM379.677 59.8V47.1H420.177V59.8H379.677ZM441.741 100V45.4C441.741 41.6 442.575 38.2333 444.241 35.3C445.908 32.3667 448.208 30.0667 451.141 28.4C454.075 26.7333 457.508 25.9 461.441 25.9C464.375 25.9 466.975 26.3333 469.241 27.2C471.575 28 473.475 29 474.941 30.2L470.741 40.8C469.741 40.2 468.608 39.6667 467.341 39.2C466.075 38.6667 464.841 38.4 463.641 38.4C461.775 38.4 460.241 38.7 459.041 39.3C457.841 39.9 456.975 40.8 456.441 42C455.908 43.1333 455.641 44.4333 455.641 45.9V100H448.741C447.341 100 446.041 100 444.841 100C443.708 100 442.675 100 441.741 100ZM432.241 60.8V48.8H471.441V60.8H432.241ZM515.373 101C509.573 101 504.407 99.8333 499.873 97.5C495.407 95.1 491.873 91.8667 489.273 87.8C486.673 83.6667 485.373 78.9667 485.373 73.7C485.373 68.4333 486.673 63.7667 489.273 59.7C491.873 55.5667 495.407 52.3333 499.873 50C504.407 47.6 509.573 46.4 515.373 46.4C521.107 46.4 526.207 47.6 530.673 50C535.207 52.3333 538.773 55.5667 541.373 59.7C543.973 63.7667 545.273 68.4333 545.273 73.7C545.273 78.9667 543.973 83.6667 541.373 87.8C538.773 91.8667 535.207 95.1 530.673 97.5C526.207 99.8333 521.107 101 515.373 101ZM515.373 91.6C519.04 91.6 522.34 90.8333 525.273 89.3C528.273 87.7 530.607 85.5667 532.273 82.9C534.007 80.1667 534.84 77.1 534.773 73.7C534.84 70.2333 534.007 67.1667 532.273 64.5C530.607 61.7667 528.273 59.6333 525.273 58.1C522.34 56.5667 519.04 55.8 515.373 55.8C511.707 55.8 508.373 56.6 505.373 58.2C502.373 59.7333 500.007 61.8333 498.273 64.5C496.607 67.1667 495.807 70.2333 495.873 73.7C495.807 77.1 496.607 80.1667 498.273 82.9C500.007 85.5667 502.373 87.7 505.373 89.3C508.373 90.8333 511.707 91.6 515.373 91.6ZM565.971 100V47.5H576.371V65L574.571 62.4C575.438 59.4667 576.904 56.8 578.971 54.4C581.038 51.9333 583.404 50 586.071 48.6C588.738 47.1333 591.504 46.4 594.371 46.4C596.038 46.4 597.638 46.5667 599.171 46.9C600.771 47.2333 602.004 47.6667 602.871 48.2L600.171 59.2C599.104 58.6 597.838 58.1333 596.371 57.8C594.971 57.4667 593.604 57.3 592.271 57.3C590.004 57.3 587.904 57.7333 585.971 58.6C584.038 59.4 582.338 60.5 580.871 61.9C579.471 63.3 578.371 64.9 577.571 66.7C576.771 68.4333 576.371 70.2667 576.371 72.2V100H565.971ZM620.442 100V47.5H630.842V60.3L628.142 60.7C628.676 59.1 629.609 57.4667 630.942 55.8C632.276 54.1333 633.942 52.6333 635.942 51.3C637.942 49.9 640.142 48.7667 642.542 47.9C645.009 47.0333 647.642 46.6 650.442 46.6C653.709 46.6 656.642 47.1333 659.242 48.2C661.842 49.2667 663.942 50.9 665.542 53.1C667.209 55.3 668.309 58.0333 668.842 61.3L666.442 60.7L667.142 59C667.942 57.6 669.042 56.2 670.442 54.8C671.909 53.3333 673.609 52 675.542 50.8C677.542 49.5333 679.676 48.5333 681.942 47.8C684.209 47 686.542 46.6 688.942 46.6C693.609 46.6 697.376 47.5 700.242 49.3C703.109 51.1 705.209 53.6667 706.542 57C707.876 60.3333 708.542 64.3 708.542 68.9V100H698.142V69.9C698.142 66.9 697.709 64.4 696.842 62.4C696.042 60.3333 694.776 58.7667 693.042 57.7C691.309 56.6333 689.042 56.1 686.242 56.1C683.909 56.1 681.709 56.5 679.642 57.3C677.642 58.0333 675.876 59.1 674.342 60.5C672.809 61.8333 671.609 63.4 670.742 65.2C669.942 67 669.542 68.9333 669.542 71V100H659.142V69.7C659.142 66.9 658.676 64.5 657.742 62.5C656.809 60.4333 655.409 58.8667 653.542 57.8C651.676 56.6667 649.309 56.1 646.442 56.1C644.176 56.1 642.109 56.5 640.242 57.3C638.376 58.1 636.709 59.1667 635.242 60.5C633.842 61.8333 632.742 63.3333 631.942 65C631.209 66.6 630.842 68.2667 630.842 70V100H620.442Z" fill="#221D1D"/>
<rect y="11" width="119" height="114" rx="38" fill="#0066FF"/>
<circle cx="28" cy="68" r="12" fill="#F5F5F4"/>
<circle cx="59" cy="68" r="12" fill="#F5F5F4"/>
<circle cx="90" cy="68" r="12" fill="#F5F5F4"/>
</svg>
