<svg width="754" height="154" viewBox="0 0 754 154" fill="none" xmlns="http://www.w3.org/2000/svg">
<path d="M206.6 101C201.067 101 195.9 100.133 191.1 98.4C186.367 96.6 182.2 94.1 178.6 90.9C175.067 87.7 172.333 83.9 170.4 79.5C168.467 75.0333 167.5 70.1 167.5 64.7C167.5 59.4333 168.5 54.6 170.5 50.2C172.567 45.8 175.367 42 178.9 38.8C182.433 35.6 186.6 33.1 191.4 31.3C196.2 29.5 201.367 28.6 206.9 28.6C210.7 28.6 214.367 29.0667 217.9 30C221.5 30.9333 224.833 32.2333 227.9 33.9C230.967 35.5667 233.567 37.4667 235.7 39.6L225.6 52.2C224 50.6667 222.267 49.3333 220.4 48.2C218.533 47 216.433 46.0667 214.1 45.4C211.767 44.6667 209.2 44.3 206.4 44.3C203.667 44.3 201 44.7667 198.4 45.7C195.8 46.6333 193.5 48 191.5 49.8C189.5 51.5333 187.9 53.7 186.7 56.3C185.567 58.8333 185 61.7 185 64.9C185 68.1 185.6 70.9667 186.8 73.5C188 76.0333 189.633 78.2 191.7 80C193.833 81.7333 196.3 83.0667 199.1 84C201.9 84.9333 204.933 85.4 208.2 85.4C211.067 85.4 213.667 85 216 84.2C218.333 83.4 220.433 82.4333 222.3 81.3C224.167 80.1 225.833 78.8333 227.3 77.5L235.4 90.6C233.6 92.3333 231.2 94 228.2 95.6C225.2 97.2 221.833 98.5 218.1 99.5C214.367 100.5 210.533 101 206.6 101ZM254.143 100V26H269.843V59.3L266.043 60.6C266.71 57.9333 268.11 55.5 270.243 53.3C272.443 51.0333 275.11 49.2333 278.243 47.9C281.376 46.5 284.71 45.8 288.243 45.8C292.776 45.8 296.576 46.7333 299.643 48.6C302.776 50.4 305.11 52.9667 306.643 56.3C308.243 59.5667 309.043 63.4 309.043 67.8V100H292.943V70.3C292.943 67.9 292.51 65.9 291.643 64.3C290.843 62.6333 289.61 61.3667 287.943 60.5C286.343 59.6333 284.476 59.2333 282.343 59.3C280.61 59.3 278.976 59.6 277.443 60.2C275.976 60.7333 274.676 61.5333 273.543 62.6C272.476 63.6 271.643 64.7667 271.043 66.1C270.443 67.4333 270.143 68.8667 270.143 70.4V100H262.243C260.043 100 258.276 100 256.943 100C255.61 100 254.676 100 254.143 100ZM353.938 100.9C348.671 100.9 344.071 99.7333 340.138 97.4C336.204 95.0667 333.104 91.8333 330.838 87.7C328.638 83.5 327.537 78.7333 327.537 73.4C327.537 68 328.671 63.2333 330.938 59.1C333.204 54.9667 336.338 51.7333 340.338 49.4C344.404 47 349.071 45.8 354.338 45.8C357.338 45.8 360.104 46.2 362.638 47C365.171 47.7333 367.371 48.7667 369.238 50.1C371.171 51.4333 372.738 52.9 373.938 54.5C375.204 56.1 376.038 57.7667 376.438 59.5H372.938V46.9H388.738V100H372.638V86.4L376.037 86.9C375.638 88.6333 374.804 90.3333 373.538 92C372.271 93.6667 370.638 95.1667 368.638 96.5C366.638 97.8333 364.371 98.9 361.838 99.7C359.371 100.5 356.738 100.9 353.938 100.9ZM358.238 87.4C361.238 87.4 363.838 86.8333 366.038 85.7C368.304 84.5667 370.038 82.9667 371.238 80.9C372.504 78.7667 373.138 76.2667 373.138 73.4C373.138 70.6 372.504 68.1667 371.238 66.1C370.038 63.9667 368.304 62.3 366.038 61.1C363.838 59.9 361.238 59.3 358.238 59.3C355.238 59.3 352.638 59.9 350.438 61.1C348.238 62.3 346.504 63.9667 345.238 66.1C344.038 68.1667 343.438 70.6 343.438 73.4C343.438 76.2667 344.038 78.7667 345.238 80.9C346.504 82.9667 348.238 84.5667 350.438 85.7C352.638 86.8333 355.238 87.4 358.238 87.4ZM418.62 100V32.3H434.62V100H418.62ZM406.82 60.9V46.9H448.12V60.9H406.82ZM472.815 100V44.7C472.815 41.1 473.615 37.9 475.215 35.1C476.815 32.2333 479.015 30 481.815 28.4C484.682 26.8 487.982 26 491.715 26C494.582 26 497.082 26.4333 499.215 27.3C501.415 28.1 503.182 29.1 504.515 30.3L500.715 39.9C499.715 39.1667 498.548 38.5333 497.215 38C495.948 37.4 494.682 37.1 493.415 37.1C491.415 37.1 489.782 37.4333 488.515 38.1C487.248 38.7667 486.315 39.7 485.715 40.9C485.115 42.1 484.815 43.4667 484.815 45V100H478.815C477.748 100 476.715 100 475.715 100C474.715 100 473.748 100 472.815 100ZM463.015 59.6V48.8H501.115V59.6H463.015ZM544.194 101C538.26 101 532.994 99.8333 528.394 97.5C523.794 95.1 520.16 91.8333 517.494 87.7C514.894 83.5667 513.594 78.8667 513.594 73.6C513.594 68.3333 514.894 63.6333 517.494 59.5C520.16 55.3667 523.794 52.1333 528.394 49.8C532.994 47.4 538.26 46.2 544.194 46.2C550.127 46.2 555.394 47.4 559.994 49.8C564.594 52.1333 568.194 55.3667 570.794 59.5C573.46 63.6333 574.794 68.3333 574.794 73.6C574.794 78.8667 573.46 83.5667 570.794 87.7C568.194 91.8333 564.594 95.1 559.994 97.5C555.394 99.8333 550.127 101 544.194 101ZM544.194 90.1C547.594 90.1 550.66 89.3667 553.394 87.9C556.194 86.4333 558.36 84.4667 559.894 82C561.494 79.5333 562.294 76.7333 562.294 73.6C562.294 70.4 561.494 67.5667 559.894 65.1C558.36 62.5667 556.194 60.6 553.394 59.2C550.66 57.8 547.594 57.1 544.194 57.1C540.86 57.1 537.794 57.8333 534.994 59.3C532.194 60.7 529.994 62.6333 528.394 65.1C526.794 67.5667 526.027 70.4 526.094 73.6C526.027 76.7333 526.794 79.5333 528.394 82C529.994 84.4667 532.194 86.4333 534.994 87.9C537.794 89.3667 540.86 90.1 544.194 90.1ZM595.166 100V47.3H607.266L607.566 65.1L605.066 62.7C605.932 59.6333 607.399 56.8667 609.466 54.4C611.599 51.8667 614.032 49.8667 616.766 48.4C619.499 46.9333 622.332 46.2 625.266 46.2C626.932 46.2 628.566 46.3667 630.166 46.7C631.766 47.0333 633.032 47.4667 633.966 48L630.666 61.3C629.599 60.6333 628.299 60.1333 626.766 59.8C625.299 59.4 623.799 59.2 622.266 59.2C620.132 59.2 618.166 59.6 616.366 60.4C614.566 61.1333 612.999 62.1667 611.666 63.5C610.399 64.7667 609.399 66.2333 608.666 67.9C607.932 69.5 607.566 71.2333 607.566 73.1V100H595.166ZM651.595 100V47.3H663.695L663.895 59.5H661.095C661.761 57.9 662.761 56.3333 664.095 54.8C665.495 53.2 667.161 51.8 669.095 50.6C671.028 49.3333 673.161 48.3333 675.495 47.6C677.828 46.8 680.328 46.4 682.995 46.4C686.128 46.4 688.961 46.9 691.495 47.9C694.028 48.8333 696.128 50.3667 697.795 52.5C699.461 54.6333 700.628 57.3333 701.295 60.6L698.595 60L699.395 58.4C700.261 56.9333 701.428 55.5 702.895 54.1C704.361 52.7 706.061 51.4333 707.995 50.3C709.928 49.1 712.028 48.1667 714.295 47.5C716.561 46.7667 718.861 46.4 721.195 46.4C725.928 46.4 729.761 47.3 732.695 49.1C735.695 50.9 737.861 53.4667 739.195 56.8C740.595 60.1333 741.295 64.0667 741.295 68.6V100H728.895V69.8C728.895 67.1333 728.495 64.8667 727.695 63C726.961 61.1333 725.761 59.7333 724.095 58.8C722.495 57.8 720.428 57.3 717.895 57.3C715.761 57.3 713.728 57.6667 711.795 58.4C709.928 59.0667 708.295 60.0333 706.895 61.3C705.495 62.5667 704.395 64.0333 703.595 65.7C702.861 67.3 702.495 69.0333 702.495 70.9V100H690.095V69.7C690.095 67.1 689.661 64.9 688.795 63.1C687.928 61.2333 686.628 59.8 684.895 58.8C683.161 57.8 680.961 57.3 678.295 57.3C676.228 57.3 674.328 57.6667 672.595 58.4C670.861 59.1333 669.328 60.1333 667.995 61.4C666.728 62.6 665.728 63.9333 664.995 65.4C664.328 66.8667 663.995 68.4 663.995 70V100H651.595Z" fill="#262626"/>
<rect x="16" y="5" width="119" height="114" rx="38" fill="#0066FF"/>
<circle cx="44" cy="62" r="12" fill="#CAEDFF"/>
<circle cx="75" cy="62" r="12" fill="#CAEDFF"/>
<circle cx="106" cy="62" r="12" fill="#CAEDFF"/>
</svg>
