<svg width="742" height="125" viewBox="0 0 742 125" fill="none" xmlns="http://www.w3.org/2000/svg">
<rect y="25" width="119" height="75" rx="37.5" fill="#0066FF"/>
<circle cx="34" cy="63" r="6" fill="#F5F5F4"/>
<circle cx="84" cy="63" r="6" fill="#F5F5F4"/>
<circle cx="59" cy="63" r="6" fill="#F5F5F4"/>
<path d="M191.7 101C185.967 101 180.633 100.1 175.7 98.3C170.767 96.5 166.467 94 162.8 90.8C159.133 87.6 156.3 83.8 154.3 79.4C152.3 74.9333 151.3 70 151.3 64.6C151.3 59.2667 152.333 54.4 154.4 50C156.467 45.5333 159.3 41.7 162.9 38.5C166.567 35.2333 170.867 32.7 175.8 30.9C180.8 29.1 186.167 28.2 191.9 28.2C195.7 28.2 199.367 28.6667 202.9 29.6C206.433 30.4667 209.733 31.7 212.8 33.3C215.933 34.8333 218.667 36.7 221 38.9L209.4 53.4C208.067 52.0667 206.533 50.8667 204.8 49.8C203.133 48.7333 201.167 47.8667 198.9 47.2C196.7 46.5333 194.2 46.2 191.4 46.2C188.867 46.2 186.4 46.6 184 47.4C181.6 48.2 179.467 49.4 177.6 51C175.8 52.6 174.367 54.5667 173.3 56.9C172.233 59.1667 171.7 61.8 171.7 64.8C171.7 67.7333 172.233 70.3333 173.3 72.6C174.433 74.8667 176 76.7667 178 78.3C180 79.8333 182.3 81.0333 184.9 81.9C187.5 82.7667 190.333 83.2 193.4 83.2C196.2 83.2 198.7 82.8 200.9 82C203.167 81.2 205.167 80.2333 206.9 79.1C208.7 77.9667 210.3 76.8 211.7 75.6L221 90.6C219.2 92.3333 216.767 94 213.7 95.6C210.633 97.2 207.2 98.5 203.4 99.5C199.6 100.5 195.7 101 191.7 101ZM238.627 100V26H256.827V59.1L252.327 60.6C252.993 57.8 254.393 55.2667 256.527 53C258.727 50.7333 261.393 48.9333 264.527 47.6C267.66 46.2667 270.993 45.6 274.527 45.6C279.06 45.6 282.893 46.5333 286.027 48.4C289.227 50.2 291.593 52.7667 293.127 56.1C294.727 59.3667 295.527 63.2 295.527 67.6V100H276.927V70.7C276.927 68.5 276.56 66.7 275.827 65.3C275.093 63.8333 273.993 62.7333 272.527 62C271.127 61.2 269.46 60.8333 267.527 60.9C266.06 60.9 264.693 61.1333 263.427 61.6C262.16 62.0667 261.06 62.7333 260.127 63.6C259.193 64.4667 258.46 65.5 257.927 66.7C257.46 67.9 257.227 69.2 257.227 70.6V100H247.927C245.327 100 243.26 100 241.727 100C240.193 100 239.16 100 238.627 100ZM339.588 100.9C334.388 100.9 329.822 99.7333 325.888 97.4C321.955 95.0667 318.888 91.8333 316.688 87.7C314.488 83.5 313.388 78.7 313.388 73.3C313.388 67.8333 314.488 63.0333 316.688 58.9C318.888 54.7667 321.955 51.5333 325.888 49.2C329.888 46.8 334.522 45.6 339.788 45.6C342.722 45.6 345.422 45.9667 347.888 46.7C350.422 47.3667 352.588 48.3667 354.388 49.7C356.255 50.9667 357.788 52.3667 358.988 53.9C360.255 55.3667 361.188 56.9333 361.788 58.6L357.788 58.8V46.7H375.988V100H357.388V86.2L361.288 87C360.822 88.8 359.955 90.5333 358.688 92.2C357.488 93.8667 355.922 95.3667 353.988 96.7C352.055 97.9667 349.888 99 347.488 99.8C345.088 100.533 342.455 100.9 339.588 100.9ZM344.788 85.6C347.455 85.6 349.755 85.1333 351.688 84.2C353.688 83.2 355.222 81.7667 356.288 79.9C357.355 78.0333 357.888 75.8333 357.888 73.3C357.888 70.7667 357.355 68.5667 356.288 66.7C355.222 64.8333 353.688 63.4 351.688 62.4C349.755 61.4 347.455 60.9 344.788 60.9C342.055 60.9 339.722 61.4 337.788 62.4C335.855 63.4 334.355 64.8333 333.288 66.7C332.288 68.5667 331.788 70.7667 331.788 73.3C331.788 75.8333 332.288 78.0333 333.288 79.9C334.355 81.7667 335.855 83.2 337.788 84.2C339.722 85.1333 342.055 85.6 344.788 85.6ZM404.843 100V32H423.443V100H404.843ZM393.643 62.5V46.7H435.943V62.5H393.643ZM460.721 100V44.7C460.721 41.1 461.521 37.9 463.121 35.1C464.721 32.2333 466.921 30 469.721 28.4C472.588 26.8 475.888 26 479.621 26C482.488 26 484.988 26.4333 487.121 27.3C489.321 28.1 491.088 29.1 492.421 30.3L488.621 39.9C487.621 39.1667 486.454 38.5333 485.121 38C483.854 37.4 482.588 37.1 481.321 37.1C479.321 37.1 477.688 37.4333 476.421 38.1C475.154 38.7667 474.221 39.7 473.621 40.9C473.021 42.1 472.721 43.4667 472.721 45V100H466.721C465.654 100 464.621 100 463.621 100C462.621 100 461.654 100 460.721 100ZM450.921 59.6V48.8H489.021V59.6H450.921ZM532.1 101C526.167 101 520.9 99.8333 516.3 97.5C511.7 95.1 508.067 91.8333 505.4 87.7C502.8 83.5667 501.5 78.8667 501.5 73.6C501.5 68.3333 502.8 63.6333 505.4 59.5C508.067 55.3667 511.7 52.1333 516.3 49.8C520.9 47.4 526.167 46.2 532.1 46.2C538.033 46.2 543.3 47.4 547.9 49.8C552.5 52.1333 556.1 55.3667 558.7 59.5C561.367 63.6333 562.7 68.3333 562.7 73.6C562.7 78.8667 561.367 83.5667 558.7 87.7C556.1 91.8333 552.5 95.1 547.9 97.5C543.3 99.8333 538.033 101 532.1 101ZM532.1 90.1C535.5 90.1 538.567 89.3667 541.3 87.9C544.1 86.4333 546.267 84.4667 547.8 82C549.4 79.5333 550.2 76.7333 550.2 73.6C550.2 70.4 549.4 67.5667 547.8 65.1C546.267 62.5667 544.1 60.6 541.3 59.2C538.567 57.8 535.5 57.1 532.1 57.1C528.767 57.1 525.7 57.8333 522.9 59.3C520.1 60.7 517.9 62.6333 516.3 65.1C514.7 67.5667 513.933 70.4 514 73.6C513.933 76.7333 514.7 79.5333 516.3 82C517.9 84.4667 520.1 86.4333 522.9 87.9C525.7 89.3667 528.767 90.1 532.1 90.1ZM583.072 100V47.3H595.172L595.472 65.1L592.972 62.7C593.839 59.6333 595.305 56.8667 597.372 54.4C599.505 51.8667 601.939 49.8667 604.672 48.4C607.405 46.9333 610.239 46.2 613.172 46.2C614.839 46.2 616.472 46.3667 618.072 46.7C619.672 47.0333 620.939 47.4667 621.872 48L618.572 61.3C617.505 60.6333 616.205 60.1333 614.672 59.8C613.205 59.4 611.705 59.2 610.172 59.2C608.039 59.2 606.072 59.6 604.272 60.4C602.472 61.1333 600.905 62.1667 599.572 63.5C598.305 64.7667 597.305 66.2333 596.572 67.9C595.839 69.5 595.472 71.2333 595.472 73.1V100H583.072ZM639.501 100V47.3H651.601L651.801 59.5H649.001C649.667 57.9 650.667 56.3333 652.001 54.8C653.401 53.2 655.067 51.8 657.001 50.6C658.934 49.3333 661.067 48.3333 663.401 47.6C665.734 46.8 668.234 46.4 670.901 46.4C674.034 46.4 676.867 46.9 679.401 47.9C681.934 48.8333 684.034 50.3667 685.701 52.5C687.367 54.6333 688.534 57.3333 689.201 60.6L686.501 60L687.301 58.4C688.167 56.9333 689.334 55.5 690.801 54.1C692.267 52.7 693.967 51.4333 695.901 50.3C697.834 49.1 699.934 48.1667 702.201 47.5C704.467 46.7667 706.767 46.4 709.101 46.4C713.834 46.4 717.667 47.3 720.601 49.1C723.601 50.9 725.767 53.4667 727.101 56.8C728.501 60.1333 729.201 64.0667 729.201 68.6V100H716.801V69.8C716.801 67.1333 716.401 64.8667 715.601 63C714.867 61.1333 713.667 59.7333 712.001 58.8C710.401 57.8 708.334 57.3 705.801 57.3C703.667 57.3 701.634 57.6667 699.701 58.4C697.834 59.0667 696.201 60.0333 694.801 61.3C693.401 62.5667 692.301 64.0333 691.501 65.7C690.767 67.3 690.401 69.0333 690.401 70.9V100H678.001V69.7C678.001 67.1 677.567 64.9 676.701 63.1C675.834 61.2333 674.534 59.8 672.801 58.8C671.067 57.8 668.867 57.3 666.201 57.3C664.134 57.3 662.234 57.6667 660.501 58.4C658.767 59.1333 657.234 60.1333 655.901 61.4C654.634 62.6 653.634 63.9333 652.901 65.4C652.234 66.8667 651.901 68.4 651.901 70V100H639.501Z" fill="#262626"/>
</svg>
